<?xml version="1.0" encoding="UTF-8" standalone="no"?><!DOCTYPE svg PUBLIC "-//W3C//DTD SVG 1.1//EN" "http://www.w3.org/Graphics/SVG/1.1/DTD/svg11.dtd"><!-- Generated by graphviz version 2.40.1 (20161225.0304)
 --><!-- Title: %0 Pages: 1 --><svg xmlns="http://www.w3.org/2000/svg" xmlns:xlink="http://www.w3.org/1999/xlink" width="791pt" height="1052pt" viewBox="0.00 0.00 791.46 1052.00">
<g id="graph0" class="graph" transform="scale(1 1) rotate(0) translate(4 1048)">
<title>%0</title>
<polygon fill="#ffffff" stroke="transparent" points="-4,4 -4,-1048 787.4627,-1048 787.4627,4 -4,4"/>
<!-- 0 -->
<g id="node1" class="node">
<title>0</title>
<ellipse fill="none" stroke="#000000" cx="181.4627" cy="-1026" rx="39.4235" ry="18"/>
<text text-anchor="middle" x="181.4627" y="-1021.8" font-family="Times,serif" font-size="14.00" fill="#000000">INPUT</text>
</g>
<!-- 1 -->
<g id="node2" class="node">
<title>1</title>
<ellipse fill="none" stroke="#000000" cx="39.4627" cy="-954" rx="39.4254" ry="18"/>
<text text-anchor="middle" x="39.4627" y="-949.8" font-family="Times,serif" font-size="14.00" fill="#000000">lambda</text>
</g>
<!-- 0&#45;&gt;1 -->
<g id="edge1" class="edge">
<title>0-&gt;1</title>
<path fill="none" stroke="#000000" d="M154.7536,-1012.4574C132.2421,-1001.0431 99.8401,-984.6139 75.1155,-972.0775"/>
<polygon fill="#000000" stroke="#000000" points="76.5539,-968.8826 66.052,-967.4819 73.3882,-975.1259 76.5539,-968.8826"/>
</g>
<!-- 2 -->
<g id="node3" class="node">
<title>2</title>
<ellipse fill="none" stroke="#000000" cx="138.4627" cy="-954" rx="41.7327" ry="18"/>
<text text-anchor="middle" x="138.4627" y="-949.8" font-family="Times,serif" font-size="14.00" fill="#000000">VARS0</text>
</g>
<!-- 0&#45;&gt;2 -->
<g id="edge2" class="edge">
<title>0-&gt;2</title>
<path fill="none" stroke="#000000" d="M171.0536,-1008.5708C165.9679,-1000.0553 159.7422,-989.6308 154.0997,-980.183"/>
<polygon fill="#000000" stroke="#000000" points="157.0573,-978.3091 148.925,-971.5182 151.0475,-981.8983 157.0573,-978.3091"/>
</g>
<!-- 3 -->
<g id="node4" class="node">
<title>3</title>
<ellipse fill="none" stroke="#000000" cx="225.4627" cy="-954" rx="27" ry="18"/>
<text text-anchor="middle" x="225.4627" y="-949.8" font-family="Times,serif" font-size="14.00" fill="#000000">:</text>
</g>
<!-- 0&#45;&gt;3 -->
<g id="edge3" class="edge">
<title>0-&gt;3</title>
<path fill="none" stroke="#000000" d="M192.1139,-1008.5708C197.4334,-999.8661 203.972,-989.1665 209.846,-979.5546"/>
<polygon fill="#000000" stroke="#000000" points="212.9845,-981.1308 215.2126,-970.7729 207.0115,-977.4807 212.9845,-981.1308"/>
</g>
<!-- 4 -->
<g id="node5" class="node">
<title>4</title>
<ellipse fill="none" stroke="#000000" cx="354.4627" cy="-954" rx="27" ry="18"/>
<text text-anchor="middle" x="354.4627" y="-949.8" font-family="Times,serif" font-size="14.00" fill="#000000">LE</text>
</g>
<!-- 0&#45;&gt;4 -->
<g id="edge4" class="edge">
<title>0-&gt;4</title>
<path fill="none" stroke="#000000" d="M210.8098,-1013.7862C241.6493,-1000.9512 290.0322,-980.815 321.9961,-967.5121"/>
<polygon fill="#000000" stroke="#000000" points="323.4637,-970.6924 331.3512,-963.6186 320.774,-964.2297 323.4637,-970.6924"/>
</g>
<!-- 5 -->
<g id="node6" class="node">
<title>5</title>
<ellipse fill="none" stroke="#000000" cx="133.4627" cy="-882" rx="36.5767" ry="18"/>
<text text-anchor="middle" x="133.4627" y="-877.8" font-family="Times,serif" font-size="14.00" fill="#000000">VARS</text>
</g>
<!-- 2&#45;&gt;5 -->
<g id="edge5" class="edge">
<title>2-&gt;5</title>
<path fill="none" stroke="#000000" d="M137.201,-935.8314C136.6662,-928.131 136.0304,-918.9743 135.4361,-910.4166"/>
<polygon fill="#000000" stroke="#000000" points="138.9258,-910.1467 134.7414,-900.4133 131.9427,-910.6317 138.9258,-910.1467"/>
</g>
<!-- 6 -->
<g id="node7" class="node">
<title>6</title>
<ellipse fill="none" stroke="#000000" cx="354.4627" cy="-882" rx="27" ry="18"/>
<text text-anchor="middle" x="354.4627" y="-877.8" font-family="Times,serif" font-size="14.00" fill="#000000">LT</text>
</g>
<!-- 4&#45;&gt;6 -->
<g id="edge6" class="edge">
<title>4-&gt;6</title>
<path fill="none" stroke="#000000" d="M354.4627,-935.8314C354.4627,-928.131 354.4627,-918.9743 354.4627,-910.4166"/>
<polygon fill="#000000" stroke="#000000" points="357.9628,-910.4132 354.4627,-900.4133 350.9628,-910.4133 357.9628,-910.4132"/>
</g>
<!-- 7 -->
<g id="node8" class="node">
<title>7</title>
<ellipse fill="none" stroke="#000000" cx="534.4627" cy="-882" rx="27" ry="18"/>
<text text-anchor="middle" x="534.4627" y="-877.8" font-family="Times,serif" font-size="14.00" fill="#000000">LE'</text>
</g>
<!-- 4&#45;&gt;7 -->
<g id="edge7" class="edge">
<title>4-&gt;7</title>
<path fill="none" stroke="#000000" d="M377.626,-944.7347C409.1314,-932.1325 465.67,-909.5171 501.5644,-895.1593"/>
<polygon fill="#000000" stroke="#000000" points="503.1182,-898.3075 511.1031,-891.3438 500.5185,-891.8081 503.1182,-898.3075"/>
</g>
<!-- 8 -->
<g id="node9" class="node">
<title>8</title>
<ellipse fill="none" stroke="#000000" cx="48.4627" cy="-810" rx="27" ry="18"/>
<text text-anchor="middle" x="48.4627" y="-805.8" font-family="Times,serif" font-size="14.00" fill="#000000">a</text>
</g>
<!-- 5&#45;&gt;8 -->
<g id="edge8" class="edge">
<title>5-&gt;8</title>
<path fill="none" stroke="#000000" d="M115.019,-866.3771C102.8077,-856.0335 86.6459,-842.3434 73.3064,-831.0441"/>
<polygon fill="#000000" stroke="#000000" points="75.3187,-828.1617 65.426,-824.3689 70.7942,-833.5031 75.3187,-828.1617"/>
</g>
<!-- 9 -->
<g id="node10" class="node">
<title>9</title>
<ellipse fill="none" stroke="#000000" cx="133.4627" cy="-810" rx="40.005" ry="18"/>
<text text-anchor="middle" x="133.4627" y="-805.8" font-family="Times,serif" font-size="14.00" fill="#000000">VARS'</text>
</g>
<!-- 5&#45;&gt;9 -->
<g id="edge9" class="edge">
<title>5-&gt;9</title>
<path fill="none" stroke="#000000" d="M133.4627,-863.8314C133.4627,-856.131 133.4627,-846.9743 133.4627,-838.4166"/>
<polygon fill="#000000" stroke="#000000" points="136.9628,-838.4132 133.4627,-828.4133 129.9628,-838.4133 136.9628,-838.4132"/>
</g>
<!-- 10 -->
<g id="node11" class="node">
<title>10</title>
<ellipse fill="none" stroke="#000000" cx="318.4627" cy="-810" rx="27" ry="18"/>
<text text-anchor="middle" x="318.4627" y="-805.8" font-family="Times,serif" font-size="14.00" fill="#000000">E</text>
</g>
<!-- 6&#45;&gt;10 -->
<g id="edge10" class="edge">
<title>6-&gt;10</title>
<path fill="none" stroke="#000000" d="M345.7481,-864.5708C341.503,-856.0807 336.3091,-845.6929 331.5964,-836.2674"/>
<polygon fill="#000000" stroke="#000000" points="334.6997,-834.6477 327.097,-827.2687 328.4387,-837.7782 334.6997,-834.6477"/>
</g>
<!-- 11 -->
<g id="node12" class="node">
<title>11</title>
<ellipse fill="none" stroke="#000000" cx="390.4627" cy="-810" rx="27" ry="18"/>
<text text-anchor="middle" x="390.4627" y="-805.8" font-family="Times,serif" font-size="14.00" fill="#000000">LT'</text>
</g>
<!-- 6&#45;&gt;11 -->
<g id="edge11" class="edge">
<title>6-&gt;11</title>
<path fill="none" stroke="#000000" d="M363.1773,-864.5708C367.4224,-856.0807 372.6163,-845.6929 377.329,-836.2674"/>
<polygon fill="#000000" stroke="#000000" points="380.4867,-837.7782 381.8283,-827.2687 374.2257,-834.6477 380.4867,-837.7782"/>
</g>
<!-- 12 -->
<g id="node13" class="node">
<title>12</title>
<ellipse fill="none" stroke="#000000" cx="498.4627" cy="-810" rx="27" ry="18"/>
<text text-anchor="middle" x="498.4627" y="-805.8" font-family="Times,serif" font-size="14.00" fill="#000000">|</text>
</g>
<!-- 7&#45;&gt;12 -->
<g id="edge12" class="edge">
<title>7-&gt;12</title>
<path fill="none" stroke="#000000" d="M525.7481,-864.5708C521.503,-856.0807 516.3091,-845.6929 511.5964,-836.2674"/>
<polygon fill="#000000" stroke="#000000" points="514.6997,-834.6477 507.097,-827.2687 508.4387,-837.7782 514.6997,-834.6477"/>
</g>
<!-- 13 -->
<g id="node14" class="node">
<title>13</title>
<ellipse fill="none" stroke="#000000" cx="570.4627" cy="-810" rx="27" ry="18"/>
<text text-anchor="middle" x="570.4627" y="-805.8" font-family="Times,serif" font-size="14.00" fill="#000000">LT</text>
</g>
<!-- 7&#45;&gt;13 -->
<g id="edge13" class="edge">
<title>7-&gt;13</title>
<path fill="none" stroke="#000000" d="M543.1773,-864.5708C547.4224,-856.0807 552.6163,-845.6929 557.329,-836.2674"/>
<polygon fill="#000000" stroke="#000000" points="560.4867,-837.7782 561.8283,-827.2687 554.2257,-834.6477 560.4867,-837.7782"/>
</g>
<!-- 14 -->
<g id="node15" class="node">
<title>14</title>
<ellipse fill="none" stroke="#000000" cx="642.4627" cy="-810" rx="27" ry="18"/>
<text text-anchor="middle" x="642.4627" y="-805.8" font-family="Times,serif" font-size="14.00" fill="#000000">LE'</text>
</g>
<!-- 7&#45;&gt;14 -->
<g id="edge14" class="edge">
<title>7-&gt;14</title>
<path fill="none" stroke="#000000" d="M553.7709,-869.1278C570.8182,-857.763 595.8646,-841.0654 614.9971,-828.3104"/>
<polygon fill="#000000" stroke="#000000" points="616.9426,-831.2199 623.3216,-822.7607 613.0596,-825.3956 616.9426,-831.2199"/>
</g>
<!-- 15 -->
<g id="node16" class="node">
<title>15</title>
<ellipse fill="none" stroke="#000000" cx="58.4627" cy="-738" rx="27" ry="18"/>
<text text-anchor="middle" x="58.4627" y="-733.8" font-family="Times,serif" font-size="14.00" fill="#000000">,</text>
</g>
<!-- 9&#45;&gt;15 -->
<g id="edge15" class="edge">
<title>9-&gt;15</title>
<path fill="none" stroke="#000000" d="M116.444,-793.6621C106.0499,-783.6837 92.6273,-770.7981 81.3149,-759.9381"/>
<polygon fill="#000000" stroke="#000000" points="83.5212,-757.2044 73.8834,-752.8039 78.6734,-762.2541 83.5212,-757.2044"/>
</g>
<!-- 16 -->
<g id="node17" class="node">
<title>16</title>
<ellipse fill="none" stroke="#000000" cx="130.4627" cy="-738" rx="27" ry="18"/>
<text text-anchor="middle" x="130.4627" y="-733.8" font-family="Times,serif" font-size="14.00" fill="#000000">b</text>
</g>
<!-- 9&#45;&gt;16 -->
<g id="edge16" class="edge">
<title>9-&gt;16</title>
<path fill="none" stroke="#000000" d="M132.7057,-791.8314C132.3848,-784.131 132.0033,-774.9743 131.6467,-766.4166"/>
<polygon fill="#000000" stroke="#000000" points="135.1433,-766.2589 131.2299,-756.4133 128.1493,-766.5503 135.1433,-766.2589"/>
</g>
<!-- 17 -->
<g id="node18" class="node">
<title>17</title>
<ellipse fill="none" stroke="#000000" cx="215.4627" cy="-738" rx="40.005" ry="18"/>
<text text-anchor="middle" x="215.4627" y="-733.8" font-family="Times,serif" font-size="14.00" fill="#000000">VARS'</text>
</g>
<!-- 9&#45;&gt;17 -->
<g id="edge17" class="edge">
<title>9-&gt;17</title>
<path fill="none" stroke="#000000" d="M152.0698,-793.6621C163.1557,-783.9281 177.3924,-771.4275 189.5648,-760.7397"/>
<polygon fill="#000000" stroke="#000000" points="192.0066,-763.2533 197.2117,-754.0252 187.388,-757.9932 192.0066,-763.2533"/>
</g>
<!-- 18 -->
<g id="node19" class="node">
<title>18</title>
<ellipse fill="none" stroke="#000000" cx="300.4627" cy="-738" rx="27" ry="18"/>
<text text-anchor="middle" x="300.4627" y="-733.8" font-family="Times,serif" font-size="14.00" fill="#000000">T</text>
</g>
<!-- 10&#45;&gt;18 -->
<g id="edge18" class="edge">
<title>10-&gt;18</title>
<path fill="none" stroke="#000000" d="M314.0133,-792.2022C312.0228,-784.2406 309.6295,-774.6671 307.4116,-765.7957"/>
<polygon fill="#000000" stroke="#000000" points="310.7443,-764.6951 304.9233,-755.8425 303.9533,-766.3929 310.7443,-764.6951"/>
</g>
<!-- 19 -->
<g id="node20" class="node">
<title>19</title>
<ellipse fill="none" stroke="#000000" cx="408.4627" cy="-738" rx="27" ry="18"/>
<text text-anchor="middle" x="408.4627" y="-733.8" font-family="Times,serif" font-size="14.00" fill="#000000">E'</text>
</g>
<!-- 10&#45;&gt;19 -->
<g id="edge19" class="edge">
<title>10-&gt;19</title>
<path fill="none" stroke="#000000" d="M335.8156,-796.1177C349.2624,-785.3602 368.0866,-770.3009 383.2037,-758.2072"/>
<polygon fill="#000000" stroke="#000000" points="385.5408,-760.8197 391.1631,-751.8397 381.1679,-755.3536 385.5408,-760.8197"/>
</g>
<!-- 20 -->
<g id="node21" class="node">
<title>20</title>
<ellipse fill="none" stroke="#000000" cx="570.4627" cy="-738" rx="27" ry="18"/>
<text text-anchor="middle" x="570.4627" y="-733.8" font-family="Times,serif" font-size="14.00" fill="#000000">E</text>
</g>
<!-- 13&#45;&gt;20 -->
<g id="edge20" class="edge">
<title>13-&gt;20</title>
<path fill="none" stroke="#000000" d="M570.4627,-791.8314C570.4627,-784.131 570.4627,-774.9743 570.4627,-766.4166"/>
<polygon fill="#000000" stroke="#000000" points="573.9628,-766.4132 570.4627,-756.4133 566.9628,-766.4133 573.9628,-766.4132"/>
</g>
<!-- 21 -->
<g id="node22" class="node">
<title>21</title>
<ellipse fill="none" stroke="#000000" cx="642.4627" cy="-738" rx="27" ry="18"/>
<text text-anchor="middle" x="642.4627" y="-733.8" font-family="Times,serif" font-size="14.00" fill="#000000">LT'</text>
</g>
<!-- 13&#45;&gt;21 -->
<g id="edge21" class="edge">
<title>13-&gt;21</title>
<path fill="none" stroke="#000000" d="M585.732,-794.7307C595.6597,-784.803 608.778,-771.6847 619.899,-760.5637"/>
<polygon fill="#000000" stroke="#000000" points="622.6191,-762.7933 627.2154,-753.2473 617.6694,-757.8436 622.6191,-762.7933"/>
</g>
<!-- 22 -->
<g id="node23" class="node">
<title>22</title>
<ellipse fill="none" stroke="#000000" cx="210.4627" cy="-666" rx="27" ry="18"/>
<text text-anchor="middle" x="210.4627" y="-661.8" font-family="Times,serif" font-size="14.00" fill="#000000">F</text>
</g>
<!-- 18&#45;&gt;22 -->
<g id="edge22" class="edge">
<title>18-&gt;22</title>
<path fill="none" stroke="#000000" d="M283.1098,-724.1177C269.663,-713.3602 250.8388,-698.3009 235.7216,-686.2072"/>
<polygon fill="#000000" stroke="#000000" points="237.7575,-683.3536 227.7623,-679.8397 233.3846,-688.8197 237.7575,-683.3536"/>
</g>
<!-- 23 -->
<g id="node24" class="node">
<title>23</title>
<ellipse fill="none" stroke="#000000" cx="282.4627" cy="-666" rx="27" ry="18"/>
<text text-anchor="middle" x="282.4627" y="-661.8" font-family="Times,serif" font-size="14.00" fill="#000000">T'</text>
</g>
<!-- 18&#45;&gt;23 -->
<g id="edge23" class="edge">
<title>18-&gt;23</title>
<path fill="none" stroke="#000000" d="M296.0133,-720.2022C294.0228,-712.2406 291.6295,-702.6671 289.4116,-693.7957"/>
<polygon fill="#000000" stroke="#000000" points="292.7443,-692.6951 286.9233,-683.8425 285.9533,-694.3929 292.7443,-692.6951"/>
</g>
<!-- 24 -->
<g id="node25" class="node">
<title>24</title>
<ellipse fill="none" stroke="#000000" cx="354.4627" cy="-666" rx="27" ry="18"/>
<text text-anchor="middle" x="354.4627" y="-661.8" font-family="Times,serif" font-size="14.00" fill="#000000">+</text>
</g>
<!-- 19&#45;&gt;24 -->
<g id="edge24" class="edge">
<title>19-&gt;24</title>
<path fill="none" stroke="#000000" d="M396.2093,-721.6621C389.305,-712.4564 380.545,-700.7764 372.8342,-690.4953"/>
<polygon fill="#000000" stroke="#000000" points="375.4677,-688.1733 366.6676,-682.2733 369.8677,-692.3733 375.4677,-688.1733"/>
</g>
<!-- 25 -->
<g id="node26" class="node">
<title>25</title>
<ellipse fill="none" stroke="#000000" cx="426.4627" cy="-666" rx="27" ry="18"/>
<text text-anchor="middle" x="426.4627" y="-661.8" font-family="Times,serif" font-size="14.00" fill="#000000">T</text>
</g>
<!-- 19&#45;&gt;25 -->
<g id="edge25" class="edge">
<title>19-&gt;25</title>
<path fill="none" stroke="#000000" d="M412.9121,-720.2022C414.9025,-712.2406 417.2959,-702.6671 419.5138,-693.7957"/>
<polygon fill="#000000" stroke="#000000" points="422.9721,-694.3929 422.0021,-683.8425 416.1811,-692.6951 422.9721,-694.3929"/>
</g>
<!-- 26 -->
<g id="node27" class="node">
<title>26</title>
<ellipse fill="none" stroke="#000000" cx="498.4627" cy="-666" rx="27" ry="18"/>
<text text-anchor="middle" x="498.4627" y="-661.8" font-family="Times,serif" font-size="14.00" fill="#000000">E'</text>
</g>
<!-- 19&#45;&gt;26 -->
<g id="edge26" class="edge">
<title>19-&gt;26</title>
<path fill="none" stroke="#000000" d="M425.8156,-724.1177C439.2624,-713.3602 458.0866,-698.3009 473.2037,-686.2072"/>
<polygon fill="#000000" stroke="#000000" points="475.5408,-688.8197 481.1631,-679.8397 471.1679,-683.3536 475.5408,-688.8197"/>
</g>
<!-- 27 -->
<g id="node28" class="node">
<title>27</title>
<ellipse fill="none" stroke="#000000" cx="570.4627" cy="-666" rx="27" ry="18"/>
<text text-anchor="middle" x="570.4627" y="-661.8" font-family="Times,serif" font-size="14.00" fill="#000000">T</text>
</g>
<!-- 20&#45;&gt;27 -->
<g id="edge27" class="edge">
<title>20-&gt;27</title>
<path fill="none" stroke="#000000" d="M570.4627,-719.8314C570.4627,-712.131 570.4627,-702.9743 570.4627,-694.4166"/>
<polygon fill="#000000" stroke="#000000" points="573.9628,-694.4132 570.4627,-684.4133 566.9628,-694.4133 573.9628,-694.4132"/>
</g>
<!-- 28 -->
<g id="node29" class="node">
<title>28</title>
<ellipse fill="none" stroke="#000000" cx="642.4627" cy="-666" rx="27" ry="18"/>
<text text-anchor="middle" x="642.4627" y="-661.8" font-family="Times,serif" font-size="14.00" fill="#000000">E'</text>
</g>
<!-- 20&#45;&gt;28 -->
<g id="edge28" class="edge">
<title>20-&gt;28</title>
<path fill="none" stroke="#000000" d="M585.732,-722.7307C595.6597,-712.803 608.778,-699.6847 619.899,-688.5637"/>
<polygon fill="#000000" stroke="#000000" points="622.6191,-690.7933 627.2154,-681.2473 617.6694,-685.8436 622.6191,-690.7933"/>
</g>
<!-- 29 -->
<g id="node30" class="node">
<title>29</title>
<ellipse fill="none" stroke="#000000" cx="210.4627" cy="-594" rx="27" ry="18"/>
<text text-anchor="middle" x="210.4627" y="-589.8" font-family="Times,serif" font-size="14.00" fill="#000000">a</text>
</g>
<!-- 22&#45;&gt;29 -->
<g id="edge29" class="edge">
<title>22-&gt;29</title>
<path fill="none" stroke="#000000" d="M210.4627,-647.8314C210.4627,-640.131 210.4627,-630.9743 210.4627,-622.4166"/>
<polygon fill="#000000" stroke="#000000" points="213.9628,-622.4132 210.4627,-612.4133 206.9628,-622.4133 213.9628,-622.4132"/>
</g>
<!-- 30 -->
<g id="node31" class="node">
<title>30</title>
<ellipse fill="none" stroke="#000000" cx="354.4627" cy="-594" rx="27" ry="18"/>
<text text-anchor="middle" x="354.4627" y="-589.8" font-family="Times,serif" font-size="14.00" fill="#000000">F</text>
</g>
<!-- 25&#45;&gt;30 -->
<g id="edge30" class="edge">
<title>25-&gt;30</title>
<path fill="none" stroke="#000000" d="M411.1933,-650.7307C401.2657,-640.803 388.1474,-627.6847 377.0264,-616.5637"/>
<polygon fill="#000000" stroke="#000000" points="379.256,-613.8436 369.71,-609.2473 374.3062,-618.7933 379.256,-613.8436"/>
</g>
<!-- 31 -->
<g id="node32" class="node">
<title>31</title>
<ellipse fill="none" stroke="#000000" cx="426.4627" cy="-594" rx="27" ry="18"/>
<text text-anchor="middle" x="426.4627" y="-589.8" font-family="Times,serif" font-size="14.00" fill="#000000">T'</text>
</g>
<!-- 25&#45;&gt;31 -->
<g id="edge31" class="edge">
<title>25-&gt;31</title>
<path fill="none" stroke="#000000" d="M426.4627,-647.8314C426.4627,-640.131 426.4627,-630.9743 426.4627,-622.4166"/>
<polygon fill="#000000" stroke="#000000" points="429.9628,-622.4132 426.4627,-612.4133 422.9628,-622.4133 429.9628,-622.4132"/>
</g>
<!-- 32 -->
<g id="node33" class="node">
<title>32</title>
<ellipse fill="none" stroke="#000000" cx="519.4627" cy="-594" rx="27" ry="18"/>
<text text-anchor="middle" x="519.4627" y="-589.8" font-family="Times,serif" font-size="14.00" fill="#000000">F</text>
</g>
<!-- 27&#45;&gt;32 -->
<g id="edge32" class="edge">
<title>27-&gt;32</title>
<path fill="none" stroke="#000000" d="M558.89,-649.6621C552.5255,-640.6768 544.4912,-629.3343 537.3383,-619.2362"/>
<polygon fill="#000000" stroke="#000000" points="539.9798,-616.9101 531.3435,-610.7729 534.2676,-620.9562 539.9798,-616.9101"/>
</g>
<!-- 33 -->
<g id="node34" class="node">
<title>33</title>
<ellipse fill="none" stroke="#000000" cx="591.4627" cy="-594" rx="27" ry="18"/>
<text text-anchor="middle" x="591.4627" y="-589.8" font-family="Times,serif" font-size="14.00" fill="#000000">T'</text>
</g>
<!-- 27&#45;&gt;33 -->
<g id="edge33" class="edge">
<title>27-&gt;33</title>
<path fill="none" stroke="#000000" d="M575.6537,-648.2022C578.0011,-640.1541 580.8289,-630.4588 583.4399,-621.5067"/>
<polygon fill="#000000" stroke="#000000" points="586.8185,-622.4226 586.2586,-611.8425 580.0985,-620.4625 586.8185,-622.4226"/>
</g>
<!-- 34 -->
<g id="node35" class="node">
<title>34</title>
<ellipse fill="none" stroke="#000000" cx="354.4627" cy="-522" rx="40.0147" ry="18"/>
<text text-anchor="middle" x="354.4627" y="-517.8" font-family="Times,serif" font-size="14.00" fill="#000000">932153</text>
</g>
<!-- 30&#45;&gt;34 -->
<g id="edge34" class="edge">
<title>30-&gt;34</title>
<path fill="none" stroke="#000000" d="M354.4627,-575.8314C354.4627,-568.131 354.4627,-558.9743 354.4627,-550.4166"/>
<polygon fill="#000000" stroke="#000000" points="357.9628,-550.4132 354.4627,-540.4133 350.9628,-550.4133 357.9628,-550.4132"/>
</g>
<!-- 35 -->
<g id="node36" class="node">
<title>35</title>
<ellipse fill="none" stroke="#000000" cx="468.4627" cy="-522" rx="27" ry="18"/>
<text text-anchor="middle" x="468.4627" y="-517.8" font-family="Times,serif" font-size="14.00" fill="#000000">b</text>
</g>
<!-- 32&#45;&gt;35 -->
<g id="edge35" class="edge">
<title>32-&gt;35</title>
<path fill="none" stroke="#000000" d="M507.89,-577.6621C501.5255,-568.6768 493.4912,-557.3343 486.3383,-547.2362"/>
<polygon fill="#000000" stroke="#000000" points="488.9798,-544.9101 480.3435,-538.7729 483.2676,-548.9562 488.9798,-544.9101"/>
</g>
<!-- 36 -->
<g id="node37" class="node">
<title>36</title>
<ellipse fill="none" stroke="#000000" cx="540.4627" cy="-522" rx="27" ry="18"/>
<text text-anchor="middle" x="540.4627" y="-517.8" font-family="Times,serif" font-size="14.00" fill="#000000">*</text>
</g>
<!-- 33&#45;&gt;36 -->
<g id="edge36" class="edge">
<title>33-&gt;36</title>
<path fill="none" stroke="#000000" d="M579.89,-577.6621C573.5255,-568.6768 565.4912,-557.3343 558.3383,-547.2362"/>
<polygon fill="#000000" stroke="#000000" points="560.9798,-544.9101 552.3435,-538.7729 555.2676,-548.9562 560.9798,-544.9101"/>
</g>
<!-- 37 -->
<g id="node38" class="node">
<title>37</title>
<ellipse fill="none" stroke="#000000" cx="612.4627" cy="-522" rx="27" ry="18"/>
<text text-anchor="middle" x="612.4627" y="-517.8" font-family="Times,serif" font-size="14.00" fill="#000000">F</text>
</g>
<!-- 33&#45;&gt;37 -->
<g id="edge37" class="edge">
<title>33-&gt;37</title>
<path fill="none" stroke="#000000" d="M596.6537,-576.2022C599.0011,-568.1541 601.8289,-558.4588 604.4399,-549.5067"/>
<polygon fill="#000000" stroke="#000000" points="607.8185,-550.4226 607.2586,-539.8425 601.0985,-548.4625 607.8185,-550.4226"/>
</g>
<!-- 38 -->
<g id="node39" class="node">
<title>38</title>
<ellipse fill="none" stroke="#000000" cx="684.4627" cy="-522" rx="27" ry="18"/>
<text text-anchor="middle" x="684.4627" y="-517.8" font-family="Times,serif" font-size="14.00" fill="#000000">T'</text>
</g>
<!-- 33&#45;&gt;38 -->
<g id="edge38" class="edge">
<title>33-&gt;38</title>
<path fill="none" stroke="#000000" d="M609.394,-580.1177C623.2891,-569.3602 642.7408,-554.3009 658.3618,-542.2072"/>
<polygon fill="#000000" stroke="#000000" points="660.8218,-544.729 666.5864,-535.8397 656.5365,-539.1939 660.8218,-544.729"/>
</g>
<!-- 39 -->
<g id="node40" class="node">
<title>39</title>
<ellipse fill="none" stroke="#000000" cx="540.4627" cy="-450" rx="27" ry="18"/>
<text text-anchor="middle" x="540.4627" y="-445.8" font-family="Times,serif" font-size="14.00" fill="#000000">(</text>
</g>
<!-- 37&#45;&gt;39 -->
<g id="edge39" class="edge">
<title>37-&gt;39</title>
<path fill="none" stroke="#000000" d="M597.1933,-506.7307C587.2657,-496.803 574.1474,-483.6847 563.0264,-472.5637"/>
<polygon fill="#000000" stroke="#000000" points="565.256,-469.8436 555.71,-465.2473 560.3062,-474.7933 565.256,-469.8436"/>
</g>
<!-- 40 -->
<g id="node41" class="node">
<title>40</title>
<ellipse fill="none" stroke="#000000" cx="612.4627" cy="-450" rx="27" ry="18"/>
<text text-anchor="middle" x="612.4627" y="-445.8" font-family="Times,serif" font-size="14.00" fill="#000000">LE</text>
</g>
<!-- 37&#45;&gt;40 -->
<g id="edge40" class="edge">
<title>37-&gt;40</title>
<path fill="none" stroke="#000000" d="M612.4627,-503.8314C612.4627,-496.131 612.4627,-486.9743 612.4627,-478.4166"/>
<polygon fill="#000000" stroke="#000000" points="615.9628,-478.4132 612.4627,-468.4133 608.9628,-478.4133 615.9628,-478.4132"/>
</g>
<!-- 41 -->
<g id="node42" class="node">
<title>41</title>
<ellipse fill="none" stroke="#000000" cx="684.4627" cy="-450" rx="27" ry="18"/>
<text text-anchor="middle" x="684.4627" y="-445.8" font-family="Times,serif" font-size="14.00" fill="#000000">)</text>
</g>
<!-- 37&#45;&gt;41 -->
<g id="edge41" class="edge">
<title>37-&gt;41</title>
<path fill="none" stroke="#000000" d="M627.732,-506.7307C637.6597,-496.803 650.778,-483.6847 661.899,-472.5637"/>
<polygon fill="#000000" stroke="#000000" points="664.6191,-474.7933 669.2154,-465.2473 659.6694,-469.8436 664.6191,-474.7933"/>
</g>
<!-- 42 -->
<g id="node43" class="node">
<title>42</title>
<ellipse fill="none" stroke="#000000" cx="576.4627" cy="-378" rx="27" ry="18"/>
<text text-anchor="middle" x="576.4627" y="-373.8" font-family="Times,serif" font-size="14.00" fill="#000000">LT</text>
</g>
<!-- 40&#45;&gt;42 -->
<g id="edge42" class="edge">
<title>40-&gt;42</title>
<path fill="none" stroke="#000000" d="M603.7481,-432.5708C599.503,-424.0807 594.3091,-413.6929 589.5964,-404.2674"/>
<polygon fill="#000000" stroke="#000000" points="592.6997,-402.6477 585.097,-395.2687 586.4387,-405.7782 592.6997,-402.6477"/>
</g>
<!-- 43 -->
<g id="node44" class="node">
<title>43</title>
<ellipse fill="none" stroke="#000000" cx="648.4627" cy="-378" rx="27" ry="18"/>
<text text-anchor="middle" x="648.4627" y="-373.8" font-family="Times,serif" font-size="14.00" fill="#000000">LE'</text>
</g>
<!-- 40&#45;&gt;43 -->
<g id="edge43" class="edge">
<title>40-&gt;43</title>
<path fill="none" stroke="#000000" d="M621.1773,-432.5708C625.4224,-424.0807 630.6163,-413.6929 635.329,-404.2674"/>
<polygon fill="#000000" stroke="#000000" points="638.4867,-405.7782 639.8283,-395.2687 632.2257,-402.6477 638.4867,-405.7782"/>
</g>
<!-- 44 -->
<g id="node45" class="node">
<title>44</title>
<ellipse fill="none" stroke="#000000" cx="540.4627" cy="-306" rx="27" ry="18"/>
<text text-anchor="middle" x="540.4627" y="-301.8" font-family="Times,serif" font-size="14.00" fill="#000000">E</text>
</g>
<!-- 42&#45;&gt;44 -->
<g id="edge44" class="edge">
<title>42-&gt;44</title>
<path fill="none" stroke="#000000" d="M567.7481,-360.5708C563.503,-352.0807 558.3091,-341.6929 553.5964,-332.2674"/>
<polygon fill="#000000" stroke="#000000" points="556.6997,-330.6477 549.097,-323.2687 550.4387,-333.7782 556.6997,-330.6477"/>
</g>
<!-- 45 -->
<g id="node46" class="node">
<title>45</title>
<ellipse fill="none" stroke="#000000" cx="648.4627" cy="-306" rx="27" ry="18"/>
<text text-anchor="middle" x="648.4627" y="-301.8" font-family="Times,serif" font-size="14.00" fill="#000000">LT'</text>
</g>
<!-- 42&#45;&gt;45 -->
<g id="edge45" class="edge">
<title>42-&gt;45</title>
<path fill="none" stroke="#000000" d="M591.732,-362.7307C601.6597,-352.803 614.778,-339.6847 625.899,-328.5637"/>
<polygon fill="#000000" stroke="#000000" points="628.6191,-330.7933 633.2154,-321.2473 623.6694,-325.8436 628.6191,-330.7933"/>
</g>
<!-- 46 -->
<g id="node47" class="node">
<title>46</title>
<ellipse fill="none" stroke="#000000" cx="468.4627" cy="-234" rx="27" ry="18"/>
<text text-anchor="middle" x="468.4627" y="-229.8" font-family="Times,serif" font-size="14.00" fill="#000000">T</text>
</g>
<!-- 44&#45;&gt;46 -->
<g id="edge46" class="edge">
<title>44-&gt;46</title>
<path fill="none" stroke="#000000" d="M525.1933,-290.7307C515.2657,-280.803 502.1474,-267.6847 491.0264,-256.5637"/>
<polygon fill="#000000" stroke="#000000" points="493.256,-253.8436 483.71,-249.2473 488.3062,-258.7933 493.256,-253.8436"/>
</g>
<!-- 47 -->
<g id="node48" class="node">
<title>47</title>
<ellipse fill="none" stroke="#000000" cx="540.4627" cy="-234" rx="27" ry="18"/>
<text text-anchor="middle" x="540.4627" y="-229.8" font-family="Times,serif" font-size="14.00" fill="#000000">E'</text>
</g>
<!-- 44&#45;&gt;47 -->
<g id="edge47" class="edge">
<title>44-&gt;47</title>
<path fill="none" stroke="#000000" d="M540.4627,-287.8314C540.4627,-280.131 540.4627,-270.9743 540.4627,-262.4166"/>
<polygon fill="#000000" stroke="#000000" points="543.9628,-262.4132 540.4627,-252.4133 536.9628,-262.4133 543.9628,-262.4132"/>
</g>
<!-- 48 -->
<g id="node49" class="node">
<title>48</title>
<ellipse fill="none" stroke="#000000" cx="612.4627" cy="-234" rx="27" ry="18"/>
<text text-anchor="middle" x="612.4627" y="-229.8" font-family="Times,serif" font-size="14.00" fill="#000000">&amp;</text>
</g>
<!-- 45&#45;&gt;48 -->
<g id="edge48" class="edge">
<title>45-&gt;48</title>
<path fill="none" stroke="#000000" d="M639.7481,-288.5708C635.503,-280.0807 630.3091,-269.6929 625.5964,-260.2674"/>
<polygon fill="#000000" stroke="#000000" points="628.6997,-258.6477 621.097,-251.2687 622.4387,-261.7782 628.6997,-258.6477"/>
</g>
<!-- 49 -->
<g id="node50" class="node">
<title>49</title>
<ellipse fill="none" stroke="#000000" cx="684.4627" cy="-234" rx="27" ry="18"/>
<text text-anchor="middle" x="684.4627" y="-229.8" font-family="Times,serif" font-size="14.00" fill="#000000">E</text>
</g>
<!-- 45&#45;&gt;49 -->
<g id="edge49" class="edge">
<title>45-&gt;49</title>
<path fill="none" stroke="#000000" d="M657.1773,-288.5708C661.4224,-280.0807 666.6163,-269.6929 671.329,-260.2674"/>
<polygon fill="#000000" stroke="#000000" points="674.4867,-261.7782 675.8283,-251.2687 668.2257,-258.6477 674.4867,-261.7782"/>
</g>
<!-- 50 -->
<g id="node51" class="node">
<title>50</title>
<ellipse fill="none" stroke="#000000" cx="756.4627" cy="-234" rx="27" ry="18"/>
<text text-anchor="middle" x="756.4627" y="-229.8" font-family="Times,serif" font-size="14.00" fill="#000000">LT'</text>
</g>
<!-- 45&#45;&gt;50 -->
<g id="edge50" class="edge">
<title>45-&gt;50</title>
<path fill="none" stroke="#000000" d="M667.7709,-293.1278C684.8182,-281.763 709.8646,-265.0654 728.9971,-252.3104"/>
<polygon fill="#000000" stroke="#000000" points="730.9426,-255.2199 737.3216,-246.7607 727.0596,-249.3956 730.9426,-255.2199"/>
</g>
<!-- 51 -->
<g id="node52" class="node">
<title>51</title>
<ellipse fill="none" stroke="#000000" cx="468.4627" cy="-162" rx="27" ry="18"/>
<text text-anchor="middle" x="468.4627" y="-157.8" font-family="Times,serif" font-size="14.00" fill="#000000">F</text>
</g>
<!-- 46&#45;&gt;51 -->
<g id="edge51" class="edge">
<title>46-&gt;51</title>
<path fill="none" stroke="#000000" d="M468.4627,-215.8314C468.4627,-208.131 468.4627,-198.9743 468.4627,-190.4166"/>
<polygon fill="#000000" stroke="#000000" points="471.9628,-190.4132 468.4627,-180.4133 464.9628,-190.4133 471.9628,-190.4132"/>
</g>
<!-- 52 -->
<g id="node53" class="node">
<title>52</title>
<ellipse fill="none" stroke="#000000" cx="540.4627" cy="-162" rx="27" ry="18"/>
<text text-anchor="middle" x="540.4627" y="-157.8" font-family="Times,serif" font-size="14.00" fill="#000000">T'</text>
</g>
<!-- 46&#45;&gt;52 -->
<g id="edge52" class="edge">
<title>46-&gt;52</title>
<path fill="none" stroke="#000000" d="M483.732,-218.7307C493.6597,-208.803 506.778,-195.6847 517.899,-184.5637"/>
<polygon fill="#000000" stroke="#000000" points="520.6191,-186.7933 525.2154,-177.2473 515.6694,-181.8436 520.6191,-186.7933"/>
</g>
<!-- 53 -->
<g id="node54" class="node">
<title>53</title>
<ellipse fill="none" stroke="#000000" cx="648.4627" cy="-162" rx="27" ry="18"/>
<text text-anchor="middle" x="648.4627" y="-157.8" font-family="Times,serif" font-size="14.00" fill="#000000">T</text>
</g>
<!-- 49&#45;&gt;53 -->
<g id="edge53" class="edge">
<title>49-&gt;53</title>
<path fill="none" stroke="#000000" d="M675.7481,-216.5708C671.503,-208.0807 666.3091,-197.6929 661.5964,-188.2674"/>
<polygon fill="#000000" stroke="#000000" points="664.6997,-186.6477 657.097,-179.2687 658.4387,-189.7782 664.6997,-186.6477"/>
</g>
<!-- 54 -->
<g id="node55" class="node">
<title>54</title>
<ellipse fill="none" stroke="#000000" cx="720.4627" cy="-162" rx="27" ry="18"/>
<text text-anchor="middle" x="720.4627" y="-157.8" font-family="Times,serif" font-size="14.00" fill="#000000">E'</text>
</g>
<!-- 49&#45;&gt;54 -->
<g id="edge54" class="edge">
<title>49-&gt;54</title>
<path fill="none" stroke="#000000" d="M693.1773,-216.5708C697.4224,-208.0807 702.6163,-197.6929 707.329,-188.2674"/>
<polygon fill="#000000" stroke="#000000" points="710.4867,-189.7782 711.8283,-179.2687 704.2257,-186.6477 710.4867,-189.7782"/>
</g>
<!-- 55 -->
<g id="node56" class="node">
<title>55</title>
<ellipse fill="none" stroke="#000000" cx="468.4627" cy="-90" rx="27" ry="18"/>
<text text-anchor="middle" x="468.4627" y="-85.8" font-family="Times,serif" font-size="14.00" fill="#000000">b</text>
</g>
<!-- 51&#45;&gt;55 -->
<g id="edge55" class="edge">
<title>51-&gt;55</title>
<path fill="none" stroke="#000000" d="M468.4627,-143.8314C468.4627,-136.131 468.4627,-126.9743 468.4627,-118.4166"/>
<polygon fill="#000000" stroke="#000000" points="471.9628,-118.4132 468.4627,-108.4133 464.9628,-118.4133 471.9628,-118.4132"/>
</g>
<!-- 56 -->
<g id="node57" class="node">
<title>56</title>
<ellipse fill="none" stroke="#000000" cx="612.4627" cy="-90" rx="27" ry="18"/>
<text text-anchor="middle" x="612.4627" y="-85.8" font-family="Times,serif" font-size="14.00" fill="#000000">F</text>
</g>
<!-- 53&#45;&gt;56 -->
<g id="edge56" class="edge">
<title>53-&gt;56</title>
<path fill="none" stroke="#000000" d="M639.7481,-144.5708C635.503,-136.0807 630.3091,-125.6929 625.5964,-116.2674"/>
<polygon fill="#000000" stroke="#000000" points="628.6997,-114.6477 621.097,-107.2687 622.4387,-117.7782 628.6997,-114.6477"/>
</g>
<!-- 57 -->
<g id="node58" class="node">
<title>57</title>
<ellipse fill="none" stroke="#000000" cx="684.4627" cy="-90" rx="27" ry="18"/>
<text text-anchor="middle" x="684.4627" y="-85.8" font-family="Times,serif" font-size="14.00" fill="#000000">T'</text>
</g>
<!-- 53&#45;&gt;57 -->
<g id="edge57" class="edge">
<title>53-&gt;57</title>
<path fill="none" stroke="#000000" d="M657.1773,-144.5708C661.4224,-136.0807 666.6163,-125.6929 671.329,-116.2674"/>
<polygon fill="#000000" stroke="#000000" points="674.4867,-117.7782 675.8283,-107.2687 668.2257,-114.6477 674.4867,-117.7782"/>
</g>
<!-- 58 -->
<g id="node59" class="node">
<title>58</title>
<ellipse fill="none" stroke="#000000" cx="612.4627" cy="-18" rx="27" ry="18"/>
<text text-anchor="middle" x="612.4627" y="-13.8" font-family="Times,serif" font-size="14.00" fill="#000000">a</text>
</g>
<!-- 56&#45;&gt;58 -->
<g id="edge58" class="edge">
<title>56-&gt;58</title>
<path fill="none" stroke="#000000" d="M612.4627,-71.8314C612.4627,-64.131 612.4627,-54.9743 612.4627,-46.4166"/>
<polygon fill="#000000" stroke="#000000" points="615.9628,-46.4132 612.4627,-36.4133 608.9628,-46.4133 615.9628,-46.4132"/>
</g>
</g>
</svg>